HIERARCHY
ROOT Hips
{
	OFFSET 0.000000 100.481300 0.000000
	CHANNELS 6 Xposition Yposition Zposition Xrotation Yrotation Zrotation
	JOINT Spine
	{
		OFFSET -0.279200 12.230698 -2.892100
		CHANNELS 3 Xrotation Yrotation Zrotation
		JOINT Spine1
		{
			OFFSET -0.325700 14.269203 -3.374200
			CHANNELS 3 Xrotation Yrotation Zrotation
			JOINT Spine2
			{
				OFFSET -0.372300 16.307602 -0.352600
				CHANNELS 3 Xrotation Yrotation Zrotation
				JOINT Neck
				{
					OFFSET -0.418800 17.814194 8.416900
					CHANNELS 3 Xrotation Yrotation Zrotation
					JOINT Head
					{
						OFFSET 0.000000 7.031097 3.806800
						CHANNELS 3 Xrotation Yrotation Zrotation
						JOINT HeadTop_End
						{
							OFFSET 0.000000 24.646606 12.978600
							CHANNELS 3 Xrotation Yrotation Zrotation
							End Site
							{
								OFFSET 0.000000 27.854965 0.000000
							}
						}
					}
				}
				JOINT LeftShoulder
				{
					OFFSET 16.952999 14.495407 -7.737500
					CHANNELS 3 Xrotation Yrotation Zrotation
					JOINT LeftArm
					{
						OFFSET 9.308998 -2.777710 0.208600
						CHANNELS 3 Xrotation Yrotation Zrotation
						JOINT LeftForeArm
						{
							OFFSET 29.972298 0.000000 0.000000
							CHANNELS 3 Xrotation Yrotation Zrotation
							JOINT LeftHand
							{
								OFFSET 26.026505 0.000000 0.000000
								CHANNELS 3 Xrotation Yrotation Zrotation
								JOINT LeftHandThumb1
								{
									OFFSET 12.240501 -7.147949 9.207150
									CHANNELS 3 Xrotation Yrotation Zrotation
									JOINT LeftHandThumb2
									{
										OFFSET 4.138618 -2.389435 2.389433
										CHANNELS 3 Xrotation Yrotation Zrotation
										JOINT LeftHandThumb3
										{
											OFFSET 2.726913 -1.574387 1.574386
											CHANNELS 3 Xrotation Yrotation Zrotation
											JOINT LeftHandThumb4
											{
												OFFSET 3.941010 -2.275345 2.275342
												CHANNELS 3 Xrotation Yrotation Zrotation
												End Site
												{
													OFFSET -0.005798 5.087799 0.009903
												}
											}
										}
									}
								}
								JOINT LeftHandIndex1
								{
									OFFSET 24.424698 -1.985611 5.953459
									CHANNELS 3 Xrotation Yrotation Zrotation
									JOINT LeftHandIndex2
									{
										OFFSET 6.426697 0.000000 0.000000
										CHANNELS 3 Xrotation Yrotation Zrotation
										JOINT LeftHandIndex3
										{
											OFFSET 5.337898 0.000000 0.000000
											CHANNELS 3 Xrotation Yrotation Zrotation
											JOINT LeftHandIndex4
											{
												OFFSET 4.409401 0.000000 0.000000
												CHANNELS 3 Xrotation Yrotation Zrotation
												End Site
												{
													OFFSET 0.000000 4.409363 0.014373
												}
											}
										}
									}
								}
								JOINT LeftHandMiddle1
								{
									OFFSET 23.810104 0.000000 0.000000
									CHANNELS 3 Xrotation Yrotation Zrotation
									JOINT LeftHandMiddle2
									{
										OFFSET 7.176498 0.000000 0.000000
										CHANNELS 3 Xrotation Yrotation Zrotation
										JOINT LeftHandMiddle3
										{
											OFFSET 6.774902 0.000000 0.000000
											CHANNELS 3 Xrotation Yrotation Zrotation
											JOINT LeftHandMiddle4
											{
												OFFSET 5.403328 0.000000 0.000000
												CHANNELS 3 Xrotation Yrotation Zrotation
												End Site
												{
													OFFSET -0.027702 5.403244 0.017414
												}
											}
										}
									}
								}
								JOINT LeftHandRing1
								{
									OFFSET 22.908401 -0.839279 -6.020567
									CHANNELS 3 Xrotation Yrotation Zrotation
									JOINT LeftHandRing2
									{
										OFFSET 6.337502 0.000000 0.000000
										CHANNELS 3 Xrotation Yrotation Zrotation
										JOINT LeftHandRing3
										{
											OFFSET 5.779297 0.000000 0.000000
											CHANNELS 3 Xrotation Yrotation Zrotation
											JOINT LeftHandRing4
											{
												OFFSET 4.965698 0.000000 0.000000
												CHANNELS 3 Xrotation Yrotation Zrotation
												End Site
												{
													OFFSET 0.000000 4.965668 0.016186
												}
											}
										}
									}
								}
								JOINT LeftHandPinky1
								{
									OFFSET 20.037003 -1.530319 -10.950146
									CHANNELS 3 Xrotation Yrotation Zrotation
									JOINT LeftHandPinky2
									{
										OFFSET 5.254700 0.000000 0.000000
										CHANNELS 3 Xrotation Yrotation Zrotation
										JOINT LeftHandPinky3
										{
											OFFSET 4.810204 0.000000 0.000000
											CHANNELS 3 Xrotation Yrotation Zrotation
											JOINT LeftHandPinky4
											{
												OFFSET 3.647202 0.000000 0.000000
												CHANNELS 3 Xrotation Yrotation Zrotation
												End Site
												{
													OFFSET 0.000000 3.647186 0.011889
												}
											}
										}
									}
								}
							}
						}
					}
				}
				JOINT RightShoulder
				{
					OFFSET -15.141001 14.495407 -7.737500
					CHANNELS 3 Xrotation Yrotation Zrotation
					JOINT RightArm
					{
						OFFSET -9.308998 -2.777710 0.208500
						CHANNELS 3 Xrotation Yrotation Zrotation
						JOINT RightForeArm
						{
							OFFSET -29.972300 0.000000 0.000000
							CHANNELS 3 Xrotation Yrotation Zrotation
							JOINT RightHand
							{
								OFFSET -26.026505 0.000000 0.000000
								CHANNELS 3 Xrotation Yrotation Zrotation
								JOINT RightHandThumb1
								{
									OFFSET -12.240601 -7.148026 9.207092
									CHANNELS 3 Xrotation Yrotation Zrotation
									JOINT RightHandThumb2
									{
										OFFSET -4.138618 -2.389435 2.389433
										CHANNELS 3 Xrotation Yrotation Zrotation
										JOINT RightHandThumb3
										{
											OFFSET -2.726974 -1.574417 1.574421
											CHANNELS 3 Xrotation Yrotation Zrotation
											JOINT RightHandThumb4
											{
												OFFSET -3.941010 -2.275345 2.275343
												CHANNELS 3 Xrotation Yrotation Zrotation
												End Site
												{
													OFFSET 0.005814 5.087799 0.009927
												}
											}
										}
									}
								}
								JOINT RightHandIndex1
								{
									OFFSET -24.424698 -1.985657 5.953444
									CHANNELS 3 Xrotation Yrotation Zrotation
									JOINT RightHandIndex2
									{
										OFFSET -6.426697 0.000000 0.000000
										CHANNELS 3 Xrotation Yrotation Zrotation
										JOINT RightHandIndex3
										{
											OFFSET -5.337898 0.000000 0.000000
											CHANNELS 3 Xrotation Yrotation Zrotation
											JOINT RightHandIndex4
											{
												OFFSET -4.409401 0.000000 0.000000
												CHANNELS 3 Xrotation Yrotation Zrotation
												End Site
												{
													OFFSET 0.000000 4.409363 0.014408
												}
											}
										}
									}
								}
								JOINT RightHandMiddle1
								{
									OFFSET -23.810097 0.000000 0.000000
									CHANNELS 3 Xrotation Yrotation Zrotation
									JOINT RightHandMiddle2
									{
										OFFSET -7.176498 0.000000 0.000000
										CHANNELS 3 Xrotation Yrotation Zrotation
										JOINT RightHandMiddle3
										{
											OFFSET -6.774902 0.000000 0.000000
											CHANNELS 3 Xrotation Yrotation Zrotation
											JOINT RightHandMiddle4
											{
												OFFSET -5.403328 0.000000 0.000000
												CHANNELS 3 Xrotation Yrotation Zrotation
												End Site
												{
													OFFSET 0.027702 5.403244 0.017457
												}
											}
										}
									}
								}
								JOINT RightHandRing1
								{
									OFFSET -22.908302 -0.839325 -6.020576
									CHANNELS 3 Xrotation Yrotation Zrotation
									JOINT RightHandRing2
									{
										OFFSET -6.337502 0.000000 0.000000
										CHANNELS 3 Xrotation Yrotation Zrotation
										JOINT RightHandRing3
										{
											OFFSET -5.779297 0.000000 0.000000
											CHANNELS 3 Xrotation Yrotation Zrotation
											JOINT RightHandRing4
											{
												OFFSET -4.965698 0.000000 0.000000
												CHANNELS 3 Xrotation Yrotation Zrotation
												End Site
												{
													OFFSET 0.000000 4.965668 0.016226
												}
											}
										}
									}
								}
								JOINT RightHandPinky1
								{
									OFFSET -20.037003 -1.530334 -10.950259
									CHANNELS 3 Xrotation Yrotation Zrotation
									JOINT RightHandPinky2
									{
										OFFSET -5.254700 0.000000 0.000000
										CHANNELS 3 Xrotation Yrotation Zrotation
										JOINT RightHandPinky3
										{
											OFFSET -4.810204 0.000000 0.000000
											CHANNELS 3 Xrotation Yrotation Zrotation
											JOINT RightHandPinky4
											{
												OFFSET -3.647202 0.000000 0.000000
												CHANNELS 3 Xrotation Yrotation Zrotation
												End Site
												{
													OFFSET 0.000000 3.647186 0.011917
												}
											}
										}
									}
								}
							}
						}
					}
				}
			}
		}
	}
	JOINT LeftUpLeg
	{
		OFFSET 15.427100 -6.655098 0.678600
		CHANNELS 3 Xrotation Yrotation Zrotation
		JOINT LeftLeg
		{
			OFFSET 4.081073 -39.591068 13.024000
			CHANNELS 3 Xrotation Yrotation Zrotation
			JOINT LeftFoot
			{
				OFFSET -4.081074 -37.707932 -15.979700
				CHANNELS 3 Xrotation Yrotation Zrotation
				JOINT LeftToeBase
				{
					OFFSET 5.346399 -15.068900 20.645000
					CHANNELS 3 Xrotation Yrotation Zrotation
					JOINT LeftToe_End
					{
						OFFSET 2.754700 0.931300 11.300900
						CHANNELS 3 Xrotation Yrotation Zrotation
						End Site
						{
							OFFSET 0.000000 11.669021 0.000000
						}
					}
				}
			}
		}
	}
	JOINT RightUpLeg
	{
		OFFSET -15.569500 -6.655098 0.678600
		CHANNELS 3 Xrotation Yrotation Zrotation
		JOINT RightLeg
		{
			OFFSET -4.081825 -39.591045 13.023800
			CHANNELS 3 Xrotation Yrotation Zrotation
			JOINT RightFoot
			{
				OFFSET 4.081824 -37.707954 -15.979600
				CHANNELS 3 Xrotation Yrotation Zrotation
				JOINT RightToeBase
				{
					OFFSET -5.346400 -15.068900 20.645000
					CHANNELS 3 Xrotation Yrotation Zrotation
					JOINT RightToe_End
					{
						OFFSET -2.754700 0.931300 11.300900
						CHANNELS 3 Xrotation Yrotation Zrotation
						End Site
						{
							OFFSET 0.000000 11.669021 0.000000
						}
					}
				}
			}
		}
	}
}
MOTION
Frames: 4
Frame Time: 0.033333
0.312557 94.347466 -0.634274 -2.977217 -7.561710 -1.890415 9.035095 2.466330 2.764611 2.445537 0.340315 -3.191585 2.464740 0.274354 -3.182700 -4.704955 0.334960 4.686445 -10.598289 8.583601 -2.384038 0.000000 0.000000 -0.000000 0.841641 -6.272928 0.531098 2.513377 -22.440525 -73.999212 0.000005 -16.428905 0.000004 -18.710448 0.439181 3.536766 8.212432 6.841155 9.344177 4.722088 17.608619 1.458217 -0.579459 1.575001 2.538706 -0.000000 0.000001 0.000000 0.742169 3.114546 -26.800318 0.232385 1.777173 -14.898354 0.247248 1.832114 -15.370460 -0.000002 -0.000000 0.000000 0.797006 3.220630 -27.792600 0.305940 2.033494 -17.110529 0.305530 2.032142 -17.098851 -0.000000 -0.000003 -0.000001 0.883239 3.378919 -29.290693 0.393431 2.298342 -19.425090 0.393382 2.298187 -19.423750 -0.000000 0.000000 -0.000000 3.034140 7.016535 -30.358982 0.459916 -1.589198 -21.412807 0.476343 2.520957 -21.396973 -0.000001 -0.000000 0.000002 1.693430 27.765491 4.714594 2.846657 7.876629 76.063411 -0.000015 23.047008 0.000010 -29.085736 3.530621 0.130541 -1.430307 -15.085420 -5.624861 5.584672 -19.311887 -0.939278 -1.273757 0.137310 -2.094869 -0.000000 -0.000001 -0.000000 0.498573 -2.590022 21.788614 0.527914 -2.662162 22.428910 0.206288 -1.684392 13.963304 0.000000 -0.000000 0.000001 0.588181 -2.803573 23.692953 0.627200 -2.890750 24.478461 0.305030 -2.040711 17.000742 -0.000001 0.000000 -0.000000 0.711931 -3.069817 26.108103 0.758613 -3.163146 26.966608 0.455782 -2.480403 20.821243 0.000001 0.000000 -0.000001 0.820975 -3.282643 28.075810 0.867668 -3.368586 28.880827 0.598810 -2.827639 23.909332 -0.000001 0.000001 -0.000000 -3.403567 9.766650 15.985641 15.165233 -2.532171 -5.009049 -5.962977 23.246783 -8.708446 -0.543182 -0.000003 -0.000002 -0.000000 0.000002 0.000000 -8.437600 4.381765 1.215879 19.101544 -1.725974 -0.424118 -7.647299 -5.623194 1.146248 -0.000093 0.000005 0.000214 0.000000 0.000000 -0.000000 
0.678917 94.328651 -0.571214 -2.853145 -7.141483 -1.778317 8.997318 2.254444 2.540489 2.340533 0.316825 -3.152706 2.357546 0.253097 -3.144907 -4.815278 0.294584 4.732707 -9.912956 8.365427 -1.819346 0.000000 -0.000000 -0.000000 0.825777 -6.104144 0.511048 2.805656 -24.849080 -73.546049 0.000006 -16.521080 0.000006 -18.046345 -1.398741 4.889574 8.212429 6.841155 9.344176 4.722090 17.608619 1.458215 -0.579458 1.575002 2.538703 0.000000 -0.000000 -0.000002 0.723024 3.076397 -26.445748 0.228520 1.762585 -14.773098 0.245253 1.824833 -15.307835 0.000000 0.000000 -0.000003 0.781291 3.190682 -27.511551 0.300037 2.014227 -16.943329 0.302661 2.022801 -17.017713 -0.000001 0.000002 -0.000000 0.871954 3.358760 -29.098682 0.384909 2.274048 -19.211446 0.389110 2.286052 -19.316994 0.000000 -0.000002 -0.000003 3.019168 7.008336 -30.236360 0.448956 -1.617309 -21.163032 0.470849 2.506901 -21.271709 0.000000 -0.000003 0.000001 1.703155 27.768826 4.670126 3.100030 7.039641 77.031031 -0.000005 23.417150 -0.000008 -30.081113 1.320163 1.556131 -1.430307 -15.085420 -5.624860 5.584672 -19.311887 -0.939277 -1.273756 0.137311 -2.094870 -0.000000 0.000002 -0.000000 0.536186 -2.682100 22.606432 0.541291 -2.694311 22.715220 0.212448 -1.708974 14.171430 0.000000 0.000000 -0.000001 0.622779 -2.881029 24.390670 0.639064 -2.916629 24.712586 0.310942 -2.059930 17.165954 0.000001 -0.000000 0.000003 0.741604 -3.129548 26.656828 0.767752 -3.181022 27.131823 0.460757 -2.493433 20.935916 0.000000 -0.000001 -0.000001 0.845764 -3.328629 28.505815 0.874054 -3.380112 28.989225 0.602549 -2.836040 23.984966 0.000000 0.000000 -0.000001 -3.274055 8.074366 15.634576 15.368233 -1.743998 -5.437683 -6.342538 22.958552 -8.299780 -0.928254 -0.000008 -0.000000 0.000000 0.000000 0.000000 -8.321648 4.112515 0.474996 18.923830 -1.515280 0.066384 -7.663892 -5.704247 1.561665 -0.000043 0.000001 0.000095 0.000000 -0.000000 -0.000000 
1.046502 94.227501 -0.587595 -2.743970 -6.562786 -1.721751 8.877771 2.060666 2.685655 2.274408 0.292064 -3.152372 2.289705 0.229435 -3.145469 -4.945182 0.176461 4.921649 -9.140379 7.992771 -1.286365 0.000000 -0.000000 -0.000000 0.810159 -5.930121 0.514533 3.429883 -28.444412 -72.903144 0.000009 -15.698724 -0.000011 -15.717493 -3.769955 6.698697 8.212429 6.841155 9.344178 4.722083 17.608614 1.458210 -0.579460 1.575002 2.538703 0.000002 0.000000 0.000001 0.683511 2.995769 -25.699772 0.218511 1.724222 -14.444366 0.240048 1.805711 -15.143450 0.000001 0.000001 -0.000002 0.747648 3.125343 -26.900903 0.290652 1.983166 -16.674186 0.298168 2.008085 -16.890028 -0.000000 -0.000004 0.000000 0.845911 3.311616 -28.651066 0.377708 2.253290 -19.029138 0.385695 2.276288 -19.231134 -0.000001 -0.000002 -0.000001 2.979948 6.986647 -29.914371 0.444242 -1.629487 -21.054956 0.468487 2.500818 -21.217496 0.000002 -0.000003 0.000000 1.712120 27.751777 4.615955 3.661786 9.348482 76.496896 0.000007 22.549359 0.000006 -27.928447 1.222190 3.146947 -1.430306 -15.085420 -5.624859 5.584670 -19.311887 -0.939277 -1.273755 0.137310 -2.094869 0.000000 0.000001 -0.000001 0.576831 -2.777598 23.459878 0.557111 -2.731757 23.049464 0.220145 -1.739175 14.427422 -0.000001 -0.000001 -0.000000 0.660729 -2.963196 25.135098 0.652326 -2.945236 24.971960 0.317800 -2.081994 17.355786 -0.000001 -0.000001 -0.000001 0.775224 -3.195543 27.266224 0.776760 -3.198515 27.293704 0.465569 -2.505949 21.046109 0.000000 -0.000001 -0.000002 0.875146 -3.382073 29.007783 0.878893 -3.388814 29.071146 0.604938 -2.841399 24.033216 0.000000 0.000000 -0.000000 -4.005305 7.019953 15.501589 16.503417 -1.258733 -6.220091 -7.203569 21.548446 -6.251236 -0.753005 -0.000007 -0.000001 -0.000000 -0.000002 -0.000000 -8.336168 2.560958 -0.154761 19.006717 -1.135951 0.030405 -7.779517 -5.085617 2.184614 -0.000009 -0.000003 0.000001 0.000000 0.000000 -0.000000 
1.485153 93.827866 -0.666549 -2.645497 -5.787015 -2.047176 8.491777 1.904336 3.422566 2.307022 0.266301 -3.180259 2.321169 0.204153 -3.173598 -5.162028 0.004269 5.147724 -8.269775 7.448430 -0.722789 -0.000000 -0.000000 -0.000000 0.796496 -5.775509 0.534372 5.243783 -33.386890 -71.009693 -0.000008 -15.384835 0.000000 -10.250243 -5.888820 8.693014 8.212429 6.841155 9.344176 4.722087 17.608619 1.458214 -0.579458 1.575003 2.538701 -0.000002 0.000001 0.000001 0.630287 2.882722 -24.661868 0.197977 1.642452 -13.745249 0.229160 1.765003 -14.793852 0.000001 -0.000001 -0.000003 0.698215 3.026080 -25.979601 0.271517 1.918174 -16.112041 0.288677 1.976539 -16.616839 -0.000002 -0.000000 0.000004 0.801186 3.228554 -27.866962 0.363082 2.210446 -18.653378 0.378593 2.255845 -19.051645 -0.000000 -0.000001 -0.000002 2.896940 6.939820 -29.229713 0.434908 -1.653911 -20.838542 0.463758 2.488615 -21.108959 0.000001 -0.000002 -0.000000 1.718615 27.627089 4.532609 5.623088 15.103324 74.448393 0.000001 22.062296 -0.000015 -20.733239 2.658801 3.738045 -1.430304 -15.085417 -5.624861 5.584676 -19.311890 -0.939278 -1.273760 0.137313 -2.094872 -0.000002 0.000001 0.000001 0.614485 -2.862679 24.224968 0.577690 -2.779556 23.477464 0.230584 -1.779236 14.767467 0.000001 0.000000 -0.000000 0.698806 -3.042901 25.861651 0.670682 -2.984304 25.327161 0.327858 -2.113877 17.630450 -0.000000 -0.000002 -0.000001 0.813541 -3.268702 27.945806 0.791389 -3.226648 27.554667 0.474135 -2.528094 21.241328 -0.000000 0.000001 -0.000001 0.913448 -3.450124 29.650524 0.889746 -3.408231 29.254281 0.611575 -2.856219 24.166903 -0.000000 -0.000001 -0.000000 -6.212354 7.210901 15.107538 19.724172 -1.583764 -6.191726 -8.973754 20.648970 -2.722300 -0.191059 0.000005 -0.000000 0.000000 -0.000002 -0.000000 -8.658488 1.063440 -0.582044 19.777470 -1.495937 0.137221 -8.256468 -4.091261 2.648777 -0.491843 -0.000005 0.000001 0.000000 -0.000000 -0.000000 
